<svg xmlns="http://www.w3.org/2000/svg" viewBox="75 -770 2066 779" role="img" aria-label="noni"><path fill="currentColor" d="M579.0 -325V0H466.0V-308Q466.0 -382 429.0 -421.5Q392.0 -461 328.0 -461Q264.0 -461 226.5 -421.5Q189.0 -382 189.0 -308V0H75.0V-551H189.0V-488Q217.0 -522 260.5 -541.0Q304.0 -560 353.0 -560Q418.0 -560 469.5 -533.0Q521.0 -506 550.0 -453.0Q579.0 -400 579.0 -325Z M687.0 -276Q687.0 -360 724.0 -425.0Q761.0 -490 825.0 -525.0Q889.0 -560 968.0 -560Q1047.0 -560 1111.0 -525.0Q1175.0 -490 1212.0 -425.0Q1249.0 -360 1249.0 -276Q1249.0 -192 1211.0 -127.0Q1173.0 -62 1107.5 -26.5Q1042.0 9 963.0 9Q885.0 9 822.0 -26.5Q759.0 -62 723.0 -126.5Q687.0 -191 687.0 -276ZM1132.0 -276Q1132.0 -336 1109.0 -377.5Q1086.0 -419 1048.0 -440.0Q1010.0 -461 966.0 -461Q922.0 -461 884.5 -440.0Q847.0 -419 825.0 -377.5Q803.0 -336 803.0 -276Q803.0 -187 848.5 -138.5Q894.0 -90 963.0 -90Q1007.0 -90 1045.5 -111.0Q1084.0 -132 1108.0 -174.0Q1132.0 -216 1132.0 -276Z M1866.0 -325V0H1753.0V-308Q1753.0 -382 1716.0 -421.5Q1679.0 -461 1615.0 -461Q1551.0 -461 1513.5 -421.5Q1476.0 -382 1476.0 -308V0H1362.0V-551H1476.0V-488Q1504.0 -522 1547.5 -541.0Q1591.0 -560 1640.0 -560Q1705.0 -560 1756.5 -533.0Q1808.0 -506 1837.0 -453.0Q1866.0 -400 1866.0 -325Z M1996.0 -697Q1996.0 -728 2017.0 -749.0Q2038.0 -770 2069.0 -770Q2099.0 -770 2120.0 -749.0Q2141.0 -728 2141.0 -697Q2141.0 -666 2120.0 -645.0Q2099.0 -624 2069.0 -624Q2038.0 -624 2017.0 -645.0Q1996.0 -666 1996.0 -697ZM2125.0 -551V0H2011.0V-551Z"/></svg>
